<svg width="263" height="67" viewBox="0 0 263 67" fill="none" xmlns="http://www.w3.org/2000/svg">
<path d="M108.878 30.5195H110.1C110.867 30.5078 111.471 30.3057 111.91 29.9131C112.35 29.5205 112.569 28.9902 112.569 28.3223C112.569 26.8223 111.822 26.0723 110.328 26.0723C109.625 26.0723 109.062 26.2744 108.641 26.6787C108.225 27.0771 108.017 27.6074 108.017 28.2695H106.391C106.391 27.2559 106.76 26.415 107.498 25.7471C108.242 25.0732 109.186 24.7363 110.328 24.7363C111.535 24.7363 112.481 25.0557 113.167 25.6943C113.853 26.333 114.195 27.2207 114.195 28.3574C114.195 28.9141 114.014 29.4531 113.65 29.9746C113.293 30.4961 112.804 30.8857 112.183 31.1436C112.886 31.3662 113.428 31.7354 113.809 32.251C114.195 32.7666 114.389 33.3965 114.389 34.1406C114.389 35.2891 114.014 36.2002 113.264 36.874C112.514 37.5479 111.538 37.8848 110.337 37.8848C109.136 37.8848 108.157 37.5596 107.401 36.9092C106.651 36.2588 106.276 35.4004 106.276 34.334H107.911C107.911 35.0078 108.131 35.5469 108.57 35.9512C109.01 36.3555 109.599 36.5576 110.337 36.5576C111.122 36.5576 111.723 36.3525 112.139 35.9424C112.555 35.5322 112.763 34.9434 112.763 34.1758C112.763 33.4316 112.534 32.8604 112.077 32.4619C111.62 32.0635 110.961 31.8584 110.1 31.8467H108.878V30.5195ZM123.002 24.9033V26.2832H122.703C121.438 26.3066 120.43 26.6816 119.68 27.4082C118.93 28.1348 118.496 29.1572 118.379 30.4756C119.053 29.7021 119.973 29.3154 121.139 29.3154C122.252 29.3154 123.14 29.708 123.802 30.4932C124.47 31.2783 124.804 32.292 124.804 33.5342C124.804 34.8525 124.443 35.9072 123.723 36.6982C123.008 37.4893 122.047 37.8848 120.84 37.8848C119.615 37.8848 118.622 37.416 117.86 36.4785C117.099 35.5352 116.718 34.3223 116.718 32.8398V32.2158C116.718 29.8604 117.219 28.0615 118.221 26.8193C119.229 25.5713 120.726 24.9326 122.712 24.9033H123.002ZM120.866 30.6689C120.31 30.6689 119.797 30.8359 119.328 31.1699C118.859 31.5039 118.534 31.9229 118.353 32.4268V33.0244C118.353 34.0791 118.59 34.9287 119.064 35.5732C119.539 36.2178 120.131 36.54 120.84 36.54C121.572 36.54 122.146 36.2705 122.562 35.7314C122.984 35.1924 123.195 34.4863 123.195 33.6133C123.195 32.7344 122.981 32.0254 122.554 31.4863C122.132 30.9414 121.569 30.6689 120.866 30.6689ZM133.109 24.9033V26.2832H132.811C131.545 26.3066 130.537 26.6816 129.787 27.4082C129.037 28.1348 128.604 29.1572 128.486 30.4756C129.16 29.7021 130.08 29.3154 131.246 29.3154C132.359 29.3154 133.247 29.708 133.909 30.4932C134.577 31.2783 134.911 32.292 134.911 33.5342C134.911 34.8525 134.551 35.9072 133.83 36.6982C133.115 37.4893 132.154 37.8848 130.947 37.8848C129.723 37.8848 128.729 37.416 127.968 36.4785C127.206 35.5352 126.825 34.3223 126.825 32.8398V32.2158C126.825 29.8604 127.326 28.0615 128.328 26.8193C129.336 25.5713 130.833 24.9326 132.819 24.9033H133.109ZM130.974 30.6689C130.417 30.6689 129.904 30.8359 129.436 31.1699C128.967 31.5039 128.642 31.9229 128.46 32.4268V33.0244C128.46 34.0791 128.697 34.9287 129.172 35.5732C129.646 36.2178 130.238 36.54 130.947 36.54C131.68 36.54 132.254 36.2705 132.67 35.7314C133.092 35.1924 133.303 34.4863 133.303 33.6133C133.303 32.7344 133.089 32.0254 132.661 31.4863C132.239 30.9414 131.677 30.6689 130.974 30.6689ZM137.038 36.8564C137.038 36.5752 137.12 36.3408 137.284 36.1533C137.454 35.9658 137.706 35.8721 138.04 35.8721C138.374 35.8721 138.626 35.9658 138.796 36.1533C138.972 36.3408 139.06 36.5752 139.06 36.8564C139.06 37.126 138.972 37.3516 138.796 37.5332C138.626 37.7148 138.374 37.8057 138.04 37.8057C137.706 37.8057 137.454 37.7148 137.284 37.5332C137.12 37.3516 137.038 37.126 137.038 36.8564ZM146.346 29.6582C146.1 29.6172 145.833 29.5967 145.546 29.5967C144.479 29.5967 143.756 30.0508 143.375 30.959V37.709H141.749V28.1992H143.331L143.357 29.2979C143.891 28.4482 144.646 28.0234 145.625 28.0234C145.941 28.0234 146.182 28.0645 146.346 28.1465V29.6582ZM153.72 36.7686C153.087 37.5127 152.158 37.8848 150.934 37.8848C149.92 37.8848 149.146 37.5918 148.613 37.0059C148.086 36.4141 147.819 35.541 147.813 34.3867V28.1992H149.439V34.3428C149.439 35.7842 150.025 36.5049 151.197 36.5049C152.439 36.5049 153.266 36.042 153.676 35.1162V28.1992H155.302V37.709H153.755L153.72 36.7686Z" fill="#47093E"/>
<rect x="0.5" y="0.5" width="262" height="66" rx="33" stroke="#47093E"/>
</svg>
