<svg width="263" height="67" viewBox="0 0 263 67" fill="none" xmlns="http://www.w3.org/2000/svg">
<path d="M100.59 37.709C100.496 37.5215 100.42 37.1875 100.361 36.707C99.6055 37.4922 98.7031 37.8848 97.6543 37.8848C96.7168 37.8848 95.9463 37.6211 95.3428 37.0938C94.7451 36.5605 94.4463 35.8867 94.4463 35.0723C94.4463 34.082 94.8213 33.3145 95.5713 32.7695C96.3271 32.2188 97.3877 31.9434 98.7529 31.9434H100.335V31.1963C100.335 30.6279 100.165 30.1768 99.8252 29.8428C99.4854 29.5029 98.9844 29.333 98.3223 29.333C97.7422 29.333 97.2559 29.4795 96.8633 29.7725C96.4707 30.0654 96.2744 30.4199 96.2744 30.8359H94.6396C94.6396 30.3613 94.8066 29.9043 95.1406 29.4648C95.4805 29.0195 95.9375 28.668 96.5117 28.4102C97.0918 28.1523 97.7275 28.0234 98.4189 28.0234C99.5146 28.0234 100.373 28.2988 100.994 28.8496C101.615 29.3945 101.938 30.1475 101.961 31.1084V35.4854C101.961 36.3584 102.072 37.0527 102.295 37.5684V37.709H100.59ZM97.8916 36.4697C98.4014 36.4697 98.8848 36.3379 99.3418 36.0742C99.7988 35.8105 100.13 35.4678 100.335 35.0459V33.0947H99.0605C97.0684 33.0947 96.0723 33.6777 96.0723 34.8438C96.0723 35.3535 96.2422 35.752 96.582 36.0391C96.9219 36.3262 97.3584 36.4697 97.8916 36.4697ZM112.543 33.0596C112.543 34.5068 112.212 35.6729 111.55 36.5576C110.888 37.4424 109.991 37.8848 108.86 37.8848C107.706 37.8848 106.798 37.5186 106.136 36.7861V41.3652H104.51V28.1992H105.995L106.074 29.2539C106.736 28.4336 107.656 28.0234 108.834 28.0234C109.977 28.0234 110.879 28.4541 111.541 29.3154C112.209 30.1768 112.543 31.375 112.543 32.9102V33.0596ZM110.917 32.875C110.917 31.8027 110.688 30.9561 110.231 30.335C109.774 29.7139 109.147 29.4033 108.351 29.4033C107.366 29.4033 106.628 29.8398 106.136 30.7129V35.2568C106.622 36.124 107.366 36.5576 108.368 36.5576C109.147 36.5576 109.766 36.25 110.223 35.6348C110.686 35.0137 110.917 34.0938 110.917 32.875ZM116.823 25.8965V28.1992H118.599V29.4561H116.823V35.3535C116.823 35.7344 116.902 36.0215 117.061 36.2148C117.219 36.4023 117.488 36.4961 117.869 36.4961C118.057 36.4961 118.314 36.4609 118.643 36.3906V37.709C118.215 37.8262 117.799 37.8848 117.395 37.8848C116.668 37.8848 116.12 37.665 115.751 37.2256C115.382 36.7861 115.197 36.1621 115.197 35.3535V29.4561H113.466V28.1992H115.197V25.8965H116.823ZM124.452 37.8848C123.163 37.8848 122.114 37.4629 121.306 36.6191C120.497 35.7695 120.093 34.6357 120.093 33.2178V32.9189C120.093 31.9756 120.271 31.1348 120.629 30.3965C120.992 29.6523 121.496 29.0723 122.141 28.6562C122.791 28.2344 123.494 28.0234 124.25 28.0234C125.486 28.0234 126.447 28.4307 127.133 29.2451C127.818 30.0596 128.161 31.2256 128.161 32.7432V33.4199H121.719C121.742 34.3574 122.015 35.1162 122.536 35.6963C123.063 36.2705 123.731 36.5576 124.54 36.5576C125.114 36.5576 125.601 36.4404 125.999 36.2061C126.397 35.9717 126.746 35.6611 127.045 35.2744L128.038 36.0479C127.241 37.2725 126.046 37.8848 124.452 37.8848ZM124.25 29.3594C123.594 29.3594 123.043 29.5996 122.598 30.0801C122.152 30.5547 121.877 31.2227 121.771 32.084H126.535V31.9609C126.488 31.1348 126.266 30.4961 125.867 30.0449C125.469 29.5879 124.93 29.3594 124.25 29.3594ZM132.705 33.3057L131.686 34.3691V37.709H130.06V24.209H131.686V32.374L132.556 31.3281L135.518 28.1992H137.495L133.795 32.1719L137.926 37.709H136.019L132.705 33.3057ZM145.045 37.709C144.951 37.5215 144.875 37.1875 144.816 36.707C144.061 37.4922 143.158 37.8848 142.109 37.8848C141.172 37.8848 140.401 37.6211 139.798 37.0938C139.2 36.5605 138.901 35.8867 138.901 35.0723C138.901 34.082 139.276 33.3145 140.026 32.7695C140.782 32.2188 141.843 31.9434 143.208 31.9434H144.79V31.1963C144.79 30.6279 144.62 30.1768 144.28 29.8428C143.94 29.5029 143.439 29.333 142.777 29.333C142.197 29.333 141.711 29.4795 141.318 29.7725C140.926 30.0654 140.729 30.4199 140.729 30.8359H139.095C139.095 30.3613 139.262 29.9043 139.596 29.4648C139.936 29.0195 140.393 28.668 140.967 28.4102C141.547 28.1523 142.183 28.0234 142.874 28.0234C143.97 28.0234 144.828 28.2988 145.449 28.8496C146.07 29.3945 146.393 30.1475 146.416 31.1084V35.4854C146.416 36.3584 146.527 37.0527 146.75 37.5684V37.709H145.045ZM142.347 36.4697C142.856 36.4697 143.34 36.3379 143.797 36.0742C144.254 35.8105 144.585 35.4678 144.79 35.0459V33.0947H143.516C141.523 33.0947 140.527 33.6777 140.527 34.8438C140.527 35.3535 140.697 35.752 141.037 36.0391C141.377 36.3262 141.813 36.4697 142.347 36.4697ZM149 36.8564C149 36.5752 149.082 36.3408 149.246 36.1533C149.416 35.9658 149.668 35.8721 150.002 35.8721C150.336 35.8721 150.588 35.9658 150.758 36.1533C150.934 36.3408 151.021 36.5752 151.021 36.8564C151.021 37.126 150.934 37.3516 150.758 37.5332C150.588 37.7148 150.336 37.8057 150.002 37.8057C149.668 37.8057 149.416 37.7148 149.246 37.5332C149.082 37.3516 149 37.126 149 36.8564ZM158.308 29.6582C158.062 29.6172 157.795 29.5967 157.508 29.5967C156.441 29.5967 155.718 30.0508 155.337 30.959V37.709H153.711V28.1992H155.293L155.319 29.2979C155.853 28.4482 156.608 28.0234 157.587 28.0234C157.903 28.0234 158.144 28.0645 158.308 28.1465V29.6582ZM165.682 36.7686C165.049 37.5127 164.12 37.8848 162.896 37.8848C161.882 37.8848 161.108 37.5918 160.575 37.0059C160.048 36.4141 159.781 35.541 159.775 34.3867V28.1992H161.401V34.3428C161.401 35.7842 161.987 36.5049 163.159 36.5049C164.401 36.5049 165.228 36.042 165.638 35.1162V28.1992H167.264V37.709H165.717L165.682 36.7686Z" fill="#47093E"/>
<rect x="0.5" y="0.5" width="262" height="66" rx="33" stroke="#47093E"/>
</svg>
