<svg width="28" height="27" viewBox="0 0 28 27" fill="none" xmlns="http://www.w3.org/2000/svg">
<path d="M24.4087 0.625H3.78369C2.20166 0.625 0.971191 1.91406 0.971191 3.4375V24.0625C0.971191 25.6445 2.20166 26.875 3.78369 26.875H11.811V17.9688H8.11963V13.75H11.811V10.5859C11.811 6.95312 13.979 4.90234 17.2603 4.90234C18.9009 4.90234 20.5415 5.19531 20.5415 5.19531V8.76953H18.7251C16.9087 8.76953 16.3228 9.88281 16.3228 11.0547V13.75H20.3657L19.7212 17.9688H16.3228V26.875H24.4087C25.9321 26.875 27.2212 25.6445 27.2212 24.0625V3.4375C27.2212 1.91406 25.9321 0.625 24.4087 0.625Z" fill="#7A7A7A"/>
</svg>
