<svg width="27" height="27" viewBox="0 0 27 27" fill="none" xmlns="http://www.w3.org/2000/svg">
<path d="M11.4625 9.17969C11.4625 10.4102 12.5172 11.4648 13.8063 11.4648C15.0367 11.4648 16.0914 10.4688 16.0914 9.17969C16.0914 7.83203 15.0367 6.83594 13.8063 6.83594C12.5172 6.83594 11.4625 7.83203 11.4625 9.17969ZM26.9313 3.4375C26.9313 1.91406 25.6422 0.625 24.1188 0.625H3.49377C1.91174 0.625 0.681274 1.91406 0.681274 3.4375V24.0625C0.681274 25.6445 1.91174 26.875 3.49377 26.875H24.1188C25.6422 26.875 26.9313 25.6445 26.9313 24.0625V3.4375ZM9.00159 9.17969C9.00159 6.54297 11.1696 4.375 13.8063 4.375C16.3844 4.375 18.5524 6.54297 18.5524 9.17969C18.5524 11.7578 16.3844 13.8672 13.8063 13.8672C11.1696 13.8672 9.00159 11.7578 9.00159 9.17969ZM19.2555 14.4531C19.7242 15.3906 19.1969 15.8594 17.9664 16.6211C16.9703 17.2656 15.6227 17.5 14.6852 17.6172L15.4469 18.3789L18.2594 21.1914C19.2555 22.2461 17.6149 23.8281 16.5602 22.832C15.8571 22.1289 14.861 21.1328 13.8063 20.0195L10.9938 22.832C9.93909 23.8281 8.29846 22.1875 9.35315 21.1914C10.0563 20.4297 11.0524 19.4336 12.1071 18.3789L12.8688 17.6172C11.9899 17.5 10.5836 17.2656 9.58752 16.6211C8.35706 15.8594 7.82971 15.3906 8.29846 14.4531C8.59143 13.9258 9.29456 13.457 10.2906 14.2773C10.2906 14.2773 11.6383 15.332 13.8063 15.332C15.9156 15.332 17.2633 14.2773 17.2633 14.2773C18.2594 13.457 18.9625 13.9258 19.2555 14.4531Z" fill="#7A7A7A"/>
</svg>
