<svg width="91" height="39" viewBox="0 0 91 39" fill="none" xmlns="http://www.w3.org/2000/svg">
<path d="M5.71976 11.6536V16.9975H0.554688V0H6.57552C12.1532 0 14.6058 2.67199 14.6058 5.82678C14.6058 8.98156 12.1532 11.6536 6.57552 11.6536H5.71976ZM9.28794 5.82678C9.30113 5.43677 9.23969 5.04804 9.10753 4.68529C8.97538 4.32255 8.77539 3.99373 8.52029 3.71973C8.26519 3.44573 7.96055 3.23254 7.62575 3.09372C7.29094 2.95491 6.93328 2.89349 6.57552 2.91339H5.71976V8.74016H6.57552C6.93107 8.75657 7.28589 8.69251 7.61758 8.55201C7.94927 8.41152 8.25062 8.19764 8.50262 7.92389C8.75462 7.65013 8.9518 7.32244 9.0817 6.96149C9.21161 6.60054 9.27143 6.21418 9.25738 5.82678H9.28794Z" fill="#828282"/>
<path d="M15.5021 0.083252H20.1858V5.344H20.4074C21.1973 4.64798 22.1803 4.26366 23.1962 4.25356C25.9774 4.25356 27.8799 6.3179 27.8799 8.98989V17.0059H23.1962V8.98989C23.2161 8.76719 23.1946 8.5424 23.1329 8.32896C23.0713 8.11553 22.9707 7.91782 22.8374 7.74766C22.704 7.57749 22.5405 7.43837 22.3567 7.33859C22.1728 7.23882 21.9724 7.18044 21.7674 7.16694C21.1786 7.2195 20.6312 7.5177 20.2393 7.99934V16.9892H15.5021V0.083252Z" fill="#828282"/>
<path d="M30.8287 6.80079C31.4062 5.98753 32.151 5.33336 33.003 4.89095C33.8549 4.44854 34.7904 4.23025 35.734 4.25365C39.4168 4.25365 41.6325 6.65928 41.6325 9.7225V13.3601C41.6423 14.5906 41.7911 15.8151 42.0757 17.006H37.3003L37.1857 16.0321H36.9641C36.1927 16.8724 35.1515 17.353 34.0607 17.3722C31.2718 17.3722 29.377 15.3079 29.377 13.0021C29.377 10.9378 31.2718 8.84016 34.0607 8.84016C35.0816 8.80994 36.0891 9.09878 36.9641 9.67256C36.9641 8.00776 36.0702 6.99224 34.733 6.99224C33.7725 7.05486 32.8632 7.48531 32.1658 8.20754L30.8287 6.80079ZM36.9412 12.0282C36.4786 11.7264 35.9521 11.56 35.4131 11.5454C35.2375 11.5454 35.0636 11.5831 34.9014 11.6563C34.7391 11.7295 34.5917 11.8368 34.4676 11.9721C34.3434 12.1074 34.2449 12.268 34.1777 12.4447C34.1105 12.6214 34.076 12.8108 34.076 13.0021C34.076 13.1934 34.1105 13.3829 34.1777 13.5596C34.2449 13.7363 34.3434 13.8969 34.4676 14.0322C34.5917 14.1674 34.7391 14.2747 34.9014 14.348C35.0636 14.4212 35.2375 14.4588 35.4131 14.4588C36.0002 14.3997 36.5455 14.1027 36.9412 13.6264V12.0282Z" fill="#828282"/>
<path d="M5.61453 38.6648C4.58989 38.7035 3.57279 38.4607 2.65685 37.9588C1.74091 37.457 0.955546 36.7122 0.373047 35.7931L1.71016 34.2948C2.06632 34.7635 2.50872 35.1457 3.00882 35.4166C3.50891 35.6876 4.0556 35.8414 4.6136 35.868C5.95072 35.868 6.48556 35.2603 6.48556 34.6527C6.48556 33.4374 1.04542 33.6871 1.04542 29.4336C1.04542 27.6106 2.9403 25.5463 6.28691 25.5463C7.19154 25.4952 8.09359 25.6908 8.91139 26.1152C9.7292 26.5396 10.437 27.1794 10.9706 27.9769L9.62587 29.4336C9.32413 29.0859 8.96215 28.8069 8.56084 28.6126C8.15954 28.4183 7.72687 28.3126 7.28783 28.3015C6.39387 28.3015 5.83611 28.9175 5.83611 29.4003C5.83611 30.6156 11.2992 30.3742 11.2992 34.6194C11.2992 36.6255 9.40429 38.6648 5.61453 38.6648Z" fill="#828282"/>
<path d="M18.1069 33.4372C18.1069 35.0188 18.871 35.8678 19.8948 35.8678C20.4403 35.8134 20.9524 35.558 21.3466 35.1437L22.4621 36.8084C21.979 37.3882 21.389 37.8503 20.7307 38.1644C20.0723 38.4786 19.3605 38.6377 18.6418 38.6314C15.4098 38.6314 13.4079 36.4422 13.4079 33.4039V28.8258H11.6429L16.4183 22.7493H18.1069V25.9124H21.0027L20.5519 28.8258H18.1069V33.4372Z" fill="#828282"/>
<path d="M35.4213 34.6528C35.4316 35.8805 35.5805 37.1022 35.8644 38.2903H31.0738L30.9362 37.3248H30.7146C29.9108 38.1834 28.83 38.6646 27.7042 38.6649C24.9154 38.6649 23.0205 36.6006 23.0205 33.9286V25.9126H27.7271V33.9286C27.7017 34.1565 27.7197 34.3877 27.7802 34.6077C27.8407 34.8277 27.9424 35.0316 28.0787 35.2068C28.215 35.3819 28.3832 35.5244 28.5725 35.6253C28.7618 35.7262 28.9683 35.7833 29.1789 35.7931C29.766 35.734 30.3113 35.437 30.707 34.9607V25.9126H35.3907L35.4213 34.6528Z" fill="#828282"/>
<path d="M50.3586 34.6527C50.369 35.8804 50.5178 37.1021 50.8018 38.2903H46.0111L45.8965 37.3164H45.6749C44.8711 38.175 43.7903 38.6562 42.6645 38.6565C41.8845 38.6548 41.1128 38.4822 40.3954 38.1489C39.6779 37.8156 39.0294 37.3285 38.4883 36.7165C37.9472 36.1045 37.5247 35.3801 37.2458 34.5866C36.967 33.793 36.8376 32.9464 36.8652 32.0972C36.8376 31.2481 36.967 30.4015 37.2458 29.6079C37.5247 28.8144 37.9472 28.09 38.4883 27.478C39.0294 26.866 39.6779 26.3789 40.3954 26.0456C41.1128 25.7123 41.8845 25.5397 42.6645 25.538C43.6474 25.5251 44.6137 25.8135 45.4533 26.3704H45.6749V21.376H50.3586V34.6527ZM45.6749 34.9024V28.9508C45.2143 28.6428 44.687 28.4733 44.1468 28.4597C42.8097 28.4597 41.6941 29.675 41.6941 32.1056C41.6941 34.5362 42.7791 35.7931 44.0933 35.7931C44.7077 35.7351 45.2762 35.4149 45.6749 34.9024Z" fill="#828282"/>
<path d="M55.386 24.4558C54.9499 24.433 54.5296 24.2713 54.177 23.9907C53.8245 23.7102 53.5552 23.3231 53.4026 22.8775C53.25 22.4318 53.2208 21.9472 53.3186 21.4836C53.4164 21.02 53.6369 20.5979 53.9528 20.2696C54.2686 19.9412 54.666 19.721 55.0956 19.6363C55.5252 19.5516 55.9682 19.606 56.3697 19.7929C56.7712 19.9798 57.1135 20.2909 57.3542 20.6877C57.595 21.0845 57.7236 21.5496 57.7241 22.0252C57.708 22.6846 57.4532 23.3104 57.0151 23.7658C56.5771 24.2212 55.9914 24.4692 55.386 24.4558ZM57.7164 38.2902H53.0327V26.1539H57.7164V38.2902Z" fill="#828282"/>
<path d="M66.7473 25.5464C70.7587 25.5464 73.5475 28.5846 73.5475 32.1057C73.5475 35.6267 70.7587 38.665 66.7473 38.665C62.736 38.665 59.9701 35.6267 59.9701 32.1057C59.9701 28.5846 62.736 25.5464 66.7473 25.5464ZM66.7473 35.993C67.7483 35.993 68.7568 34.9025 68.7568 32.1057C68.7568 29.3088 67.7483 28.2184 66.7473 28.2184C65.7464 28.2184 64.7378 29.3088 64.7378 32.1057C64.7378 34.9025 65.7464 35.993 66.7473 35.993Z" fill="#828282"/>
<path d="M52.0244 4.28672C51.8563 4.28672 51.6882 4.28672 51.5125 4.28672C50.3949 4.27897 49.3182 4.74457 48.5097 5.58525H48.2805L48.1659 4.61967H43.3676L43.8184 8.25725V17.0057H48.5097V8.25725C49.0786 7.75456 49.7799 7.46293 50.5115 7.42485C51.3464 7.32239 52.1876 7.54342 52.8878 8.04915L52.0244 4.28672Z" fill="#828282"/>
<path d="M61.3224 8.99001C61.3224 7.77471 60.7646 7.16706 59.9852 7.16706C59.7025 7.18357 59.4263 7.26651 59.1758 7.41018C58.9252 7.55386 58.7061 7.75488 58.5335 7.99946V16.9893H53.8574V6.25142L53.4678 4.16211H56.8526L58.289 5.58551H58.5335C58.9046 5.1562 59.3538 4.816 59.8524 4.58667C60.3511 4.35733 60.8881 4.24392 61.4293 4.25367C62.1531 4.20678 62.8767 4.34755 63.5408 4.66444C64.2049 4.98134 64.7905 5.46531 65.2497 6.07662H65.4712C65.9011 5.53061 66.4296 5.08695 67.0237 4.77331C67.6179 4.45967 68.2651 4.28278 68.9248 4.25367C69.5153 4.21857 70.1062 4.3151 70.6614 4.53735C71.2165 4.75961 71.7241 5.10292 72.1533 5.54627C72.5824 5.98963 72.924 6.52371 73.1571 7.11584C73.3903 7.70797 73.5101 8.3457 73.5092 8.99001V17.006H68.7949V8.99001C68.7949 7.77471 68.2371 7.16706 67.4578 7.16706C67.175 7.18357 66.8989 7.26651 66.6483 7.41018C66.3977 7.55386 66.1787 7.75488 66.0061 7.99946V16.9893H61.3224V8.99001Z" fill="#828282"/>
<path opacity="0.5" d="M85.9028 14.6417V14.1506C85.9028 13.5942 86.1056 13.0607 86.4667 12.6673C86.8278 12.2739 87.3176 12.0529 87.8282 12.0529H88.2408C88.4937 12.0573 88.7449 12.0074 88.98 11.9061C89.2152 11.8047 89.4297 11.6539 89.6113 11.4622C89.793 11.2705 89.9382 11.0417 90.0386 10.7888C90.1391 10.536 90.1928 10.2641 90.1968 9.9886C90.1999 9.70821 90.1514 9.43 90.0541 9.1704C89.9568 8.9108 89.8127 8.67509 89.6303 8.47721C89.448 8.27932 89.2311 8.12327 88.9924 8.01829C88.7537 7.91331 88.4982 7.86152 88.2408 7.86599H83.9468C83.4374 7.87476 82.952 8.10306 82.5969 8.50089C82.2417 8.89873 82.0458 9.43368 82.0519 9.9886V14.6667C82.0519 15.223 82.2548 15.7565 82.6158 16.1499C82.9769 16.5433 83.4667 16.7643 83.9773 16.7643C84.2321 16.7643 84.4844 16.7092 84.7195 16.6023C84.9546 16.4953 85.1679 16.3386 85.347 16.1411C85.5261 15.9437 85.6674 15.7095 85.7628 15.4521C85.8583 15.1947 85.9058 14.9193 85.9028 14.6417Z" fill="#828282"/>
<path d="M82.0362 5.28563V5.76009C82.0362 6.31642 81.8334 6.84996 81.4723 7.24335C81.1112 7.63673 80.6214 7.85773 80.1108 7.85773H79.6753C79.4192 7.85659 79.1655 7.91111 78.9289 8.01811C78.6924 8.12511 78.4779 8.28243 78.2979 8.48087C78.1179 8.6793 77.976 8.91487 77.8806 9.17377C77.7852 9.43267 77.7381 9.70971 77.7422 9.98867C77.7422 10.2648 77.7922 10.5383 77.8895 10.7933C77.9867 11.0484 78.1292 11.28 78.3088 11.4749C78.4884 11.6698 78.7016 11.8241 78.9361 11.929C79.1706 12.034 79.4218 12.0874 79.6753 12.0863H83.9617C84.4723 12.0863 84.9621 11.8653 85.3232 11.4719C85.6843 11.0785 85.8871 10.545 85.8871 9.98867V5.28563C85.8871 4.7293 85.6843 4.19576 85.3232 3.80237C84.9621 3.40899 84.4723 3.18799 83.9617 3.18799C83.451 3.18799 82.9613 3.40899 82.6002 3.80237C82.2391 4.19576 82.0362 4.7293 82.0362 5.28563Z" fill="#828282"/>
</svg>
