<svg width="263" height="67" viewBox="0 0 263 67" fill="none" xmlns="http://www.w3.org/2000/svg">
<path d="M93.9541 35.1865C93.9541 34.7471 93.7871 34.4072 93.4531 34.167C93.125 33.9209 92.5479 33.71 91.7217 33.5342C90.9014 33.3584 90.248 33.1475 89.7617 32.9014C89.2812 32.6553 88.9238 32.3623 88.6895 32.0225C88.4609 31.6826 88.3467 31.2783 88.3467 30.8096C88.3467 30.0303 88.6748 29.3711 89.3311 28.832C89.9932 28.293 90.8369 28.0234 91.8623 28.0234C92.9404 28.0234 93.8135 28.3018 94.4814 28.8584C95.1553 29.415 95.4922 30.127 95.4922 30.9941H93.8574C93.8574 30.5488 93.667 30.165 93.2861 29.8428C92.9111 29.5205 92.4365 29.3594 91.8623 29.3594C91.2705 29.3594 90.8076 29.4883 90.4736 29.7461C90.1396 30.0039 89.9727 30.3408 89.9727 30.7568C89.9727 31.1494 90.1279 31.4453 90.4385 31.6445C90.749 31.8438 91.3086 32.0342 92.1172 32.2158C92.9316 32.3975 93.5908 32.6143 94.0947 32.8662C94.5986 33.1182 94.9707 33.4229 95.2109 33.7803C95.457 34.1318 95.5801 34.5625 95.5801 35.0723C95.5801 35.9219 95.2402 36.6045 94.5605 37.1201C93.8809 37.6299 92.999 37.8848 91.915 37.8848C91.1533 37.8848 90.4795 37.75 89.8936 37.4805C89.3076 37.2109 88.8477 36.8359 88.5137 36.3555C88.1855 35.8691 88.0215 35.3447 88.0215 34.7822H89.6475C89.6768 35.3271 89.8936 35.7607 90.2979 36.083C90.708 36.3994 91.2471 36.5576 91.915 36.5576C92.5303 36.5576 93.0225 36.4346 93.3916 36.1885C93.7666 35.9365 93.9541 35.6025 93.9541 35.1865ZM99.9043 25.8965V28.1992H101.68V29.4561H99.9043V35.3535C99.9043 35.7344 99.9834 36.0215 100.142 36.2148C100.3 36.4023 100.569 36.4961 100.95 36.4961C101.138 36.4961 101.396 36.4609 101.724 36.3906V37.709C101.296 37.8262 100.88 37.8848 100.476 37.8848C99.749 37.8848 99.2012 37.665 98.832 37.2256C98.4629 36.7861 98.2783 36.1621 98.2783 35.3535V29.4561H96.5469V28.1992H98.2783V25.8965H99.9043ZM102.98 32.8662C102.98 31.9346 103.162 31.0967 103.525 30.3525C103.895 29.6084 104.404 29.0342 105.055 28.6299C105.711 28.2256 106.458 28.0234 107.296 28.0234C108.591 28.0234 109.637 28.4717 110.434 29.3682C111.236 30.2646 111.638 31.457 111.638 32.9453V33.0596C111.638 33.9854 111.459 34.8174 111.102 35.5557C110.75 36.2881 110.243 36.8594 109.581 37.2695C108.925 37.6797 108.169 37.8848 107.313 37.8848C106.024 37.8848 104.979 37.4365 104.176 36.54C103.379 35.6436 102.98 34.457 102.98 32.9805V32.8662ZM104.615 33.0596C104.615 34.1143 104.858 34.9609 105.345 35.5996C105.837 36.2383 106.493 36.5576 107.313 36.5576C108.14 36.5576 108.796 36.2354 109.282 35.5908C109.769 34.9404 110.012 34.0322 110.012 32.8662C110.012 31.8232 109.763 30.9795 109.265 30.335C108.772 29.6846 108.116 29.3594 107.296 29.3594C106.493 29.3594 105.846 29.6787 105.354 30.3174C104.861 30.9561 104.615 31.8701 104.615 33.0596ZM115.443 37.709H113.817V24.209H115.443V37.709ZM119.82 37.709H118.194V28.1992H119.82V37.709ZM118.062 25.6768C118.062 25.4131 118.142 25.1904 118.3 25.0088C118.464 24.8271 118.704 24.7363 119.021 24.7363C119.337 24.7363 119.577 24.8271 119.741 25.0088C119.905 25.1904 119.987 25.4131 119.987 25.6768C119.987 25.9404 119.905 26.1602 119.741 26.3359C119.577 26.5117 119.337 26.5996 119.021 26.5996C118.704 26.5996 118.464 26.5117 118.3 26.3359C118.142 26.1602 118.062 25.9404 118.062 25.6768ZM126.245 36.5576C126.825 36.5576 127.332 36.3818 127.766 36.0303C128.199 35.6787 128.439 35.2393 128.486 34.7119H130.024C129.995 35.2568 129.808 35.7754 129.462 36.2676C129.116 36.7598 128.653 37.1523 128.073 37.4453C127.499 37.7383 126.89 37.8848 126.245 37.8848C124.95 37.8848 123.919 37.4541 123.151 36.5928C122.39 35.7256 122.009 34.542 122.009 33.042V32.7695C122.009 31.8438 122.179 31.0205 122.519 30.2998C122.858 29.5791 123.345 29.0195 123.978 28.6211C124.616 28.2227 125.369 28.0234 126.236 28.0234C127.303 28.0234 128.188 28.3428 128.891 28.9814C129.6 29.6201 129.978 30.4492 130.024 31.4688H128.486C128.439 30.8535 128.205 30.3496 127.783 29.957C127.367 29.5586 126.852 29.3594 126.236 29.3594C125.41 29.3594 124.769 29.6582 124.312 30.2559C123.86 30.8477 123.635 31.7061 123.635 32.8311V33.1387C123.635 34.2344 123.86 35.0781 124.312 35.6699C124.763 36.2617 125.407 36.5576 126.245 36.5576ZM133.479 29.3506C134.199 28.4658 135.137 28.0234 136.291 28.0234C138.301 28.0234 139.314 29.1572 139.332 31.4248V37.709H137.706V31.416C137.7 30.7305 137.542 30.2236 137.231 29.8955C136.927 29.5674 136.449 29.4033 135.799 29.4033C135.271 29.4033 134.809 29.5439 134.41 29.8252C134.012 30.1064 133.701 30.4756 133.479 30.9326V37.709H131.853V24.209H133.479V29.3506ZM144.421 33.3057L143.401 34.3691V37.709H141.775V24.209H143.401V32.374L144.271 31.3281L147.233 28.1992H149.211L145.511 32.1719L149.642 37.709H147.734L144.421 33.3057ZM152.656 37.709H151.03V28.1992H152.656V37.709ZM150.898 25.6768C150.898 25.4131 150.978 25.1904 151.136 25.0088C151.3 24.8271 151.54 24.7363 151.856 24.7363C152.173 24.7363 152.413 24.8271 152.577 25.0088C152.741 25.1904 152.823 25.4131 152.823 25.6768C152.823 25.9404 152.741 26.1602 152.577 26.3359C152.413 26.5117 152.173 26.5996 151.856 26.5996C151.54 26.5996 151.3 26.5117 151.136 26.3359C150.978 26.1602 150.898 25.9404 150.898 25.6768ZM155.302 36.8564C155.302 36.5752 155.384 36.3408 155.548 36.1533C155.718 35.9658 155.97 35.8721 156.304 35.8721C156.638 35.8721 156.89 35.9658 157.06 36.1533C157.235 36.3408 157.323 36.5752 157.323 36.8564C157.323 37.126 157.235 37.3516 157.06 37.5332C156.89 37.7148 156.638 37.8057 156.304 37.8057C155.97 37.8057 155.718 37.7148 155.548 37.5332C155.384 37.3516 155.302 37.126 155.302 36.8564ZM164.609 29.6582C164.363 29.6172 164.097 29.5967 163.81 29.5967C162.743 29.5967 162.02 30.0508 161.639 30.959V37.709H160.013V28.1992H161.595L161.621 29.2979C162.154 28.4482 162.91 28.0234 163.889 28.0234C164.205 28.0234 164.445 28.0645 164.609 28.1465V29.6582ZM171.983 36.7686C171.351 37.5127 170.422 37.8848 169.197 37.8848C168.184 37.8848 167.41 37.5918 166.877 37.0059C166.35 36.4141 166.083 35.541 166.077 34.3867V28.1992H167.703V34.3428C167.703 35.7842 168.289 36.5049 169.461 36.5049C170.703 36.5049 171.529 36.042 171.939 35.1162V28.1992H173.565V37.709H172.019L171.983 36.7686Z" fill="#47093E"/>
<rect x="0.5" y="0.5" width="262" height="66" rx="33" stroke="#47093E"/>
</svg>
