<svg width="31" height="25" viewBox="0 0 31 25" fill="none" xmlns="http://www.w3.org/2000/svg">
<path d="M27.8076 6.65625C28.9795 5.77734 30.0342 4.72266 30.8545 3.49219C29.7998 3.96094 28.5693 4.3125 27.3389 4.42969C28.6279 3.66797 29.5654 2.49609 30.0342 1.03125C28.8623 1.73438 27.5146 2.26172 26.167 2.55469C24.9951 1.32422 23.4131 0.621094 21.6553 0.621094C18.2568 0.621094 15.5029 3.375 15.5029 6.77344C15.5029 7.24219 15.5615 7.71094 15.6787 8.17969C10.5811 7.88672 6.01074 5.42578 2.96387 1.73438C2.43652 2.61328 2.14355 3.66797 2.14355 4.83984C2.14355 6.94922 3.19824 8.82422 4.89746 9.9375C3.90137 9.87891 2.90527 9.64453 2.08496 9.17578V9.23438C2.08496 12.2227 4.19434 14.6836 7.00684 15.2695C6.53809 15.3867 5.95215 15.5039 5.4248 15.5039C5.01465 15.5039 4.66309 15.4453 4.25293 15.3867C5.01465 17.8477 7.2998 19.6055 9.99512 19.6641C7.88574 21.3047 5.24902 22.3008 2.37793 22.3008C1.85059 22.3008 1.38184 22.2422 0.913086 22.1836C3.6084 23.9414 6.83105 24.9375 10.3467 24.9375C21.6553 24.9375 27.8076 15.6211 27.8076 7.47656C27.8076 7.18359 27.8076 6.94922 27.8076 6.65625Z" fill="#7A7A7A"/>
</svg>
