<svg width="33" height="20" viewBox="0 0 33 20" fill="none" xmlns="http://www.w3.org/2000/svg">
<path d="M31.3689 1.66406C31.5447 0.960938 31.3689 0.375 30.3142 0.375H26.8572C25.9783 0.375 25.5681 0.84375 25.3337 1.37109C25.3337 1.37109 23.5759 5.64844 21.115 8.46094C20.2947 9.22266 19.9431 9.51562 19.4744 9.51562C19.2986 9.51562 18.947 9.22266 18.947 8.51953V1.66406C18.947 0.785156 18.7126 0.375 17.9509 0.375H12.5603C11.9744 0.375 11.6814 0.785156 11.6814 1.19531C11.6814 2.01562 12.9119 2.19141 13.0291 4.53516V9.63281C13.0291 10.7461 12.8533 10.9805 12.3845 10.9805C11.2126 10.9805 8.40015 6.64453 6.70093 1.72266C6.34937 0.785156 5.9978 0.375 5.1189 0.375H1.66187C0.724365 0.375 0.48999 0.84375 0.48999 1.37109C0.48999 2.30859 1.66187 6.82031 5.93921 12.8555C8.8103 16.957 12.8533 19.125 16.4861 19.125C18.6541 19.125 18.947 18.6562 18.947 17.8359C18.947 13.9102 18.7712 13.5 19.8259 13.5C20.3533 13.5 21.2322 13.793 23.283 15.7852C25.6267 18.1289 26.0369 19.125 27.3259 19.125H30.783C31.7791 19.125 32.2478 18.6562 31.9548 17.6602C31.3103 15.668 26.9158 11.4492 26.6814 11.1562C26.1541 10.5117 26.3298 10.2188 26.6814 9.63281C26.6814 9.63281 30.9001 3.65625 31.3689 1.66406Z" fill="#7A7A7A"/>
</svg>
