<svg width="263" height="67" viewBox="0 0 263 67" fill="none" xmlns="http://www.w3.org/2000/svg">
<path d="M89.3301 37.709H87.6338V26.3008H81.3232V37.709H79.6357V24.9121H89.3301V37.709ZM91.7207 32.8662C91.7207 31.9346 91.9023 31.0967 92.2656 30.3525C92.6348 29.6084 93.1445 29.0342 93.7949 28.6299C94.4512 28.2256 95.1982 28.0234 96.0361 28.0234C97.3311 28.0234 98.377 28.4717 99.1738 29.3682C99.9766 30.2646 100.378 31.457 100.378 32.9453V33.0596C100.378 33.9854 100.199 34.8174 99.8418 35.5557C99.4902 36.2881 98.9834 36.8594 98.3213 37.2695C97.665 37.6797 96.9092 37.8848 96.0537 37.8848C94.7646 37.8848 93.7188 37.4365 92.916 36.54C92.1191 35.6436 91.7207 34.457 91.7207 32.9805V32.8662ZM93.3555 33.0596C93.3555 34.1143 93.5986 34.9609 94.085 35.5996C94.5771 36.2383 95.2334 36.5576 96.0537 36.5576C96.8799 36.5576 97.5361 36.2354 98.0225 35.5908C98.5088 34.9404 98.752 34.0322 98.752 32.8662C98.752 31.8232 98.5029 30.9795 98.0049 30.335C97.5127 29.6846 96.8564 29.3594 96.0361 29.3594C95.2334 29.3594 94.5859 29.6787 94.0938 30.3174C93.6016 30.9561 93.3555 31.8701 93.3555 33.0596ZM101.705 36.3818L102.268 35.6875C102.9 34.8672 103.261 33.6367 103.349 31.9961L103.498 28.1992H109.624V36.3818H110.846V40.5039H109.22V37.709H102.584V40.5039H100.958L100.967 36.3818H101.705ZM103.63 36.3818H107.998V29.7021H105.071L104.975 31.9697C104.875 33.8623 104.427 35.333 103.63 36.3818ZM120.681 33.0596C120.681 34.5068 120.35 35.6729 119.688 36.5576C119.025 37.4424 118.129 37.8848 116.998 37.8848C115.844 37.8848 114.936 37.5186 114.273 36.7861V41.3652H112.647V28.1992H114.133L114.212 29.2539C114.874 28.4336 115.794 28.0234 116.972 28.0234C118.114 28.0234 119.017 28.4541 119.679 29.3154C120.347 30.1768 120.681 31.375 120.681 32.9102V33.0596ZM119.055 32.875C119.055 31.8027 118.826 30.9561 118.369 30.335C117.912 29.7139 117.285 29.4033 116.488 29.4033C115.504 29.4033 114.766 29.8398 114.273 30.7129V35.2568C114.76 36.124 115.504 36.5576 116.506 36.5576C117.285 36.5576 117.903 36.25 118.36 35.6348C118.823 35.0137 119.055 34.0938 119.055 32.875ZM122.324 32.8662C122.324 31.9346 122.506 31.0967 122.869 30.3525C123.238 29.6084 123.748 29.0342 124.398 28.6299C125.055 28.2256 125.802 28.0234 126.64 28.0234C127.935 28.0234 128.98 28.4717 129.777 29.3682C130.58 30.2646 130.981 31.457 130.981 32.9453V33.0596C130.981 33.9854 130.803 34.8174 130.445 35.5557C130.094 36.2881 129.587 36.8594 128.925 37.2695C128.269 37.6797 127.513 37.8848 126.657 37.8848C125.368 37.8848 124.322 37.4365 123.52 36.54C122.723 35.6436 122.324 34.457 122.324 32.9805V32.8662ZM123.959 33.0596C123.959 34.1143 124.202 34.9609 124.688 35.5996C125.181 36.2383 125.837 36.5576 126.657 36.5576C127.483 36.5576 128.14 36.2354 128.626 35.5908C129.112 34.9404 129.355 34.0322 129.355 32.8662C129.355 31.8232 129.106 30.9795 128.608 30.335C128.116 29.6846 127.46 29.3594 126.64 29.3594C125.837 29.3594 125.189 29.6787 124.697 30.3174C124.205 30.9561 123.959 31.8701 123.959 33.0596ZM137.195 28.7441C138.391 28.7441 139.346 29.1455 140.061 29.9482C140.781 30.7451 141.142 31.7969 141.142 33.1035V33.2529C141.142 34.1494 140.969 34.9521 140.623 35.6611C140.277 36.3643 139.779 36.9121 139.129 37.3047C138.484 37.6914 137.74 37.8848 136.896 37.8848C135.619 37.8848 134.591 37.46 133.812 36.6104C133.032 35.7549 132.643 34.6094 132.643 33.1738V32.3828C132.643 30.3848 133.012 28.7969 133.75 27.6191C134.494 26.4414 135.59 25.7236 137.037 25.4658C137.857 25.3193 138.411 25.1406 138.698 24.9297C138.985 24.7188 139.129 24.4287 139.129 24.0596H140.465C140.465 24.792 140.298 25.3633 139.964 25.7734C139.636 26.1836 139.108 26.4736 138.382 26.6436L137.169 26.916C136.202 27.1445 135.476 27.5312 134.989 28.0762C134.509 28.6152 134.195 29.3359 134.049 30.2383C134.91 29.2422 135.959 28.7441 137.195 28.7441ZM136.879 30.0801C136.082 30.0801 135.449 30.3496 134.98 30.8887C134.512 31.4219 134.277 32.1631 134.277 33.1123V33.2529C134.277 34.2725 134.512 35.0811 134.98 35.6787C135.455 36.2705 136.094 36.5664 136.896 36.5664C137.705 36.5664 138.344 36.2676 138.812 35.6699C139.281 35.0723 139.516 34.1992 139.516 33.0508C139.516 32.1543 139.278 31.4365 138.804 30.8975C138.335 30.3525 137.693 30.0801 136.879 30.0801ZM150.581 37.709H148.955V33.6484H144.587V37.709H142.952V28.1992H144.587V32.3213H148.955V28.1992H150.581V37.709ZM157.146 37.8848C155.857 37.8848 154.809 37.4629 154 36.6191C153.191 35.7695 152.787 34.6357 152.787 33.2178V32.9189C152.787 31.9756 152.966 31.1348 153.323 30.3965C153.687 29.6523 154.19 29.0723 154.835 28.6562C155.485 28.2344 156.188 28.0234 156.944 28.0234C158.181 28.0234 159.142 28.4307 159.827 29.2451C160.513 30.0596 160.855 31.2256 160.855 32.7432V33.4199H154.413C154.437 34.3574 154.709 35.1162 155.23 35.6963C155.758 36.2705 156.426 36.5576 157.234 36.5576C157.809 36.5576 158.295 36.4404 158.693 36.2061C159.092 35.9717 159.44 35.6611 159.739 35.2744L160.732 36.0479C159.936 37.2725 158.74 37.8848 157.146 37.8848ZM156.944 29.3594C156.288 29.3594 155.737 29.5996 155.292 30.0801C154.847 30.5547 154.571 31.2227 154.466 32.084H159.229V31.9609C159.183 31.1348 158.96 30.4961 158.562 30.0449C158.163 29.5879 157.624 29.3594 156.944 29.3594ZM166.691 37.8848C165.402 37.8848 164.354 37.4629 163.545 36.6191C162.736 35.7695 162.332 34.6357 162.332 33.2178V32.9189C162.332 31.9756 162.511 31.1348 162.868 30.3965C163.231 29.6523 163.735 29.0723 164.38 28.6562C165.03 28.2344 165.733 28.0234 166.489 28.0234C167.726 28.0234 168.687 28.4307 169.372 29.2451C170.058 30.0596 170.4 31.2256 170.4 32.7432V33.4199H163.958C163.981 34.3574 164.254 35.1162 164.775 35.6963C165.303 36.2705 165.971 36.5576 166.779 36.5576C167.354 36.5576 167.84 36.4404 168.238 36.2061C168.637 35.9717 168.985 35.6611 169.284 35.2744L170.277 36.0479C169.48 37.2725 168.285 37.8848 166.691 37.8848ZM166.489 29.3594C165.833 29.3594 165.282 29.5996 164.837 30.0801C164.392 30.5547 164.116 31.2227 164.011 32.084H168.774V31.9609C168.728 31.1348 168.505 30.4961 168.106 30.0449C167.708 29.5879 167.169 29.3594 166.489 29.3594ZM182.512 31.9961L176.702 29.7197V28.0498L184.208 31.3721V32.6553L176.702 35.9863V34.2988L182.512 31.9961Z" fill="white"/>
<rect x="0.5" y="0.5" width="262" height="66" rx="33" stroke="white"/>
</svg>
