<svg width="263" height="67" viewBox="0 0 263 67" fill="none" xmlns="http://www.w3.org/2000/svg">
<path d="M89.3301 37.7091H87.6338V26.3009H81.3232V37.7091H79.6357V24.9122H89.3301V37.7091ZM91.7207 32.8663C91.7207 31.9347 91.9023 31.0968 92.2656 30.3527C92.6348 29.6085 93.1445 29.0343 93.7949 28.63C94.4512 28.2257 95.1982 28.0236 96.0361 28.0236C97.3311 28.0236 98.377 28.4718 99.1738 29.3683C99.9766 30.2648 100.378 31.4572 100.378 32.9454V33.0597C100.378 33.9855 100.199 34.8175 99.8418 35.5558C99.4902 36.2882 98.9834 36.8595 98.3213 37.2697C97.665 37.6798 96.9092 37.8849 96.0537 37.8849C94.7646 37.8849 93.7188 37.4366 92.916 36.5402C92.1191 35.6437 91.7207 34.4572 91.7207 32.9806V32.8663ZM93.3555 33.0597C93.3555 34.1144 93.5986 34.9611 94.085 35.5997C94.5771 36.2384 95.2334 36.5577 96.0537 36.5577C96.8799 36.5577 97.5361 36.2355 98.0225 35.5909C98.5088 34.9406 98.752 34.0323 98.752 32.8663C98.752 31.8234 98.5029 30.9796 98.0049 30.3351C97.5127 29.6847 96.8564 29.3595 96.0361 29.3595C95.2334 29.3595 94.5859 29.6788 94.0938 30.3175C93.6016 30.9562 93.3555 31.8702 93.3555 33.0597ZM101.705 36.382L102.268 35.6876C102.9 34.8673 103.261 33.6368 103.349 31.9962L103.498 28.1993H109.624V36.382H110.846V40.504H109.22V37.7091H102.584V40.504H100.958L100.967 36.382H101.705ZM103.63 36.382H107.998V29.7023H105.071L104.975 31.9698C104.875 33.8624 104.427 35.3331 103.63 36.382ZM120.681 33.0597C120.681 34.507 120.35 35.673 119.688 36.5577C119.025 37.4425 118.129 37.8849 116.998 37.8849C115.844 37.8849 114.936 37.5187 114.273 36.7863V41.3654H112.647V28.1993H114.133L114.212 29.254C114.874 28.4337 115.794 28.0236 116.972 28.0236C118.114 28.0236 119.017 28.4542 119.679 29.3156C120.347 30.1769 120.681 31.3751 120.681 32.9103V33.0597ZM119.055 32.8751C119.055 31.8029 118.826 30.9562 118.369 30.3351C117.912 29.714 117.285 29.4034 116.488 29.4034C115.504 29.4034 114.766 29.84 114.273 30.713V35.257C114.76 36.1241 115.504 36.5577 116.506 36.5577C117.285 36.5577 117.903 36.2501 118.36 35.6349C118.823 35.0138 119.055 34.0939 119.055 32.8751ZM122.324 32.8663C122.324 31.9347 122.506 31.0968 122.869 30.3527C123.238 29.6085 123.748 29.0343 124.398 28.63C125.055 28.2257 125.802 28.0236 126.64 28.0236C127.935 28.0236 128.98 28.4718 129.777 29.3683C130.58 30.2648 130.981 31.4572 130.981 32.9454V33.0597C130.981 33.9855 130.803 34.8175 130.445 35.5558C130.094 36.2882 129.587 36.8595 128.925 37.2697C128.269 37.6798 127.513 37.8849 126.657 37.8849C125.368 37.8849 124.322 37.4366 123.52 36.5402C122.723 35.6437 122.324 34.4572 122.324 32.9806V32.8663ZM123.959 33.0597C123.959 34.1144 124.202 34.9611 124.688 35.5997C125.181 36.2384 125.837 36.5577 126.657 36.5577C127.483 36.5577 128.14 36.2355 128.626 35.5909C129.112 34.9406 129.355 34.0323 129.355 32.8663C129.355 31.8234 129.106 30.9796 128.608 30.3351C128.116 29.6847 127.46 29.3595 126.64 29.3595C125.837 29.3595 125.189 29.6788 124.697 30.3175C124.205 30.9562 123.959 31.8702 123.959 33.0597ZM137.195 28.7443C138.391 28.7443 139.346 29.1456 140.061 29.9484C140.781 30.7452 141.142 31.797 141.142 33.1036V33.2531C141.142 34.1495 140.969 34.9523 140.623 35.6613C140.277 36.3644 139.779 36.9122 139.129 37.3048C138.484 37.6915 137.74 37.8849 136.896 37.8849C135.619 37.8849 134.591 37.4601 133.812 36.6105C133.032 35.755 132.643 34.6095 132.643 33.174V32.3829C132.643 30.3849 133.012 28.797 133.75 27.6193C134.494 26.4415 135.59 25.7238 137.037 25.4659C137.857 25.3195 138.411 25.1407 138.698 24.9298C138.985 24.7189 139.129 24.4288 139.129 24.0597H140.465C140.465 24.7921 140.298 25.3634 139.964 25.7736C139.636 26.1837 139.108 26.4738 138.382 26.6437L137.169 26.9161C136.202 27.1447 135.476 27.5314 134.989 28.0763C134.509 28.6154 134.195 29.3361 134.049 30.2384C134.91 29.2423 135.959 28.7443 137.195 28.7443ZM136.879 30.0802C136.082 30.0802 135.449 30.3497 134.98 30.8888C134.512 31.422 134.277 32.1632 134.277 33.1124V33.2531C134.277 34.2726 134.512 35.0812 134.98 35.6788C135.455 36.2706 136.094 36.5665 136.896 36.5665C137.705 36.5665 138.344 36.2677 138.812 35.67C139.281 35.0724 139.516 34.1993 139.516 33.0509C139.516 32.1544 139.278 31.4366 138.804 30.8976C138.335 30.3527 137.693 30.0802 136.879 30.0802ZM150.581 37.7091H148.955V33.6486H144.587V37.7091H142.952V28.1993H144.587V32.3214H148.955V28.1993H150.581V37.7091ZM157.146 37.8849C155.857 37.8849 154.809 37.463 154 36.6193C153.191 35.7697 152.787 34.6359 152.787 33.2179V32.9191C152.787 31.9757 152.966 31.1349 153.323 30.3966C153.687 29.6525 154.19 29.0724 154.835 28.6564C155.485 28.2345 156.188 28.0236 156.944 28.0236C158.181 28.0236 159.142 28.4308 159.827 29.2452C160.513 30.0597 160.855 31.2257 160.855 32.7433V33.42H154.413C154.437 34.3575 154.709 35.1163 155.23 35.6964C155.758 36.2706 156.426 36.5577 157.234 36.5577C157.809 36.5577 158.295 36.4406 158.693 36.2062C159.092 35.9718 159.44 35.6613 159.739 35.2745L160.732 36.048C159.936 37.2726 158.74 37.8849 157.146 37.8849ZM156.944 29.3595C156.288 29.3595 155.737 29.5997 155.292 30.0802C154.847 30.5548 154.571 31.2228 154.466 32.0841H159.229V31.9611C159.183 31.1349 158.96 30.4962 158.562 30.045C158.163 29.588 157.624 29.3595 156.944 29.3595ZM166.691 37.8849C165.402 37.8849 164.354 37.463 163.545 36.6193C162.736 35.7697 162.332 34.6359 162.332 33.2179V32.9191C162.332 31.9757 162.511 31.1349 162.868 30.3966C163.231 29.6525 163.735 29.0724 164.38 28.6564C165.03 28.2345 165.733 28.0236 166.489 28.0236C167.726 28.0236 168.687 28.4308 169.372 29.2452C170.058 30.0597 170.4 31.2257 170.4 32.7433V33.42H163.958C163.981 34.3575 164.254 35.1163 164.775 35.6964C165.303 36.2706 165.971 36.5577 166.779 36.5577C167.354 36.5577 167.84 36.4406 168.238 36.2062C168.637 35.9718 168.985 35.6613 169.284 35.2745L170.277 36.048C169.48 37.2726 168.285 37.8849 166.691 37.8849ZM166.489 29.3595C165.833 29.3595 165.282 29.5997 164.837 30.0802C164.392 30.5548 164.116 31.2228 164.011 32.0841H168.774V31.9611C168.728 31.1349 168.505 30.4962 168.106 30.045C167.708 29.588 167.169 29.3595 166.489 29.3595ZM182.512 31.9962L176.702 29.7198V28.0499L184.208 31.3722V32.6554L176.702 35.9865V34.299L182.512 31.9962Z" fill="#47093E"/>
<rect x="0.5" y="0.5" width="262" height="66" rx="33" stroke="#47093E"/>
</svg>
